<?xml version="1.0" encoding="UTF-8" standalone="no"?>
<svg
   viewBox="0 0 128 128"
   version="1.1"
   id="svg12"
   sodipodi:docname="express-white.svg"
   inkscape:version="1.2 (dc2aedaf03, 2022-05-15)"
   xmlns:inkscape="http://www.inkscape.org/namespaces/inkscape"
   xmlns:sodipodi="http://sodipodi.sourceforge.net/DTD/sodipodi-0.dtd"
   xmlns="http://www.w3.org/2000/svg"
   xmlns:svg="http://www.w3.org/2000/svg">
  <defs
     id="defs16" />
  <sodipodi:namedview
     id="namedview14"
     pagecolor="#ffffff"
     bordercolor="#000000"
     borderopacity="0.25"
     inkscape:showpageshadow="2"
     inkscape:pageopacity="0.0"
     inkscape:pagecheckerboard="0"
     inkscape:deskcolor="#d1d1d1"
     showgrid="false"
     inkscape:zoom="6.5390625"
     inkscape:cx="64.076464"
     inkscape:cy="64.076464"
     inkscape:window-width="1920"
     inkscape:window-height="1017"
     inkscape:window-x="-8"
     inkscape:window-y="1072"
     inkscape:window-maximized="1"
     inkscape:current-layer="svg12" />
  <path
     d="M126.67 98.44c-4.56 1.16-7.38.05-9.91-3.75-5.68-8.51-11.95-16.63-18-24.9-.78-1.07-1.59-2.12-2.6-3.45C89 76 81.85 85.2 75.14 94.77c-2.4 3.42-4.92 4.91-9.4 3.7l26.92-36.13L67.6 29.71c4.31-.84 7.29-.41 9.93 3.45 5.83 8.52 12.26 16.63 18.67 25.21 6.45-8.55 12.8-16.67 18.8-25.11 2.41-3.42 5-4.72 9.33-3.46-3.28 4.35-6.49 8.63-9.72 12.88-4.36 5.73-8.64 11.53-13.16 17.14-1.61 2-1.35 3.3.09 5.19C109.9 76 118.16 87.1 126.67 98.44zM1.33 61.74c.72-3.61 1.2-7.29 2.2-10.83 6-21.43 30.6-30.34 47.5-17.06C60.93 41.64 63.39 52.62 62.9 65H7.1c-.84 22.21 15.15 35.62 35.53 28.78 7.15-2.4 11.36-8 13.47-15 1.07-3.51 2.84-4.06 6.14-3.06-1.69 8.76-5.52 16.08-13.52 20.66-12 6.86-29.13 4.64-38.14-4.89C5.26 85.89 3 78.92 2 71.39c-.15-1.2-.46-2.38-.7-3.57q.03-3.04.03-6.08zm5.87-1.49h50.43c-.33-16.06-10.33-27.47-24-27.57-15-.12-25.78 11.02-26.43 27.57z"
     id="path10" />
  <path
     style="fill:#ffffff;stroke-width:0.152927"
     d="M 29.667861,100.15114 C 18.427828,98.835559 10.171816,93.357121 5.7241797,84.262843 4.1137522,80.969931 2.9415891,76.982009 2.2197414,72.340076 1.9978629,70.913259 1.7183473,69.330463 1.5985955,68.822752 1.4497668,68.191764 1.3801601,66.95595 1.3786377,64.917563 1.3764834,62.033132 1.3989988,61.812797 2.0662272,58.188769 3.3014054,51.479944 4.0653077,48.840659 5.8064108,45.266428 8.3328673,40.07998 12.150287,35.724726 16.898447,32.611642 c 6.415994,-4.206584 14.363351,-5.808419 21.747737,-4.383379 7.517537,1.450735 14.59226,6.273992 18.935029,12.909132 3.532044,5.396465 5.265343,12.299478 5.270255,20.989248 l 0.0016,2.79092 H 34.943847 7.0346476 v 2.180149 c 0,14.472475 7.7747674,25.426978 19.8805254,28.01129 6.648045,1.419213 15.547357,-0.201805 20.798041,-3.788381 3.540942,-2.418704 6.501539,-6.629083 8.169306,-11.617881 0.966475,-2.891023 1.669635,-3.876477 3.026766,-4.241915 1.018485,-0.27425 3.179125,0.09903 3.179125,0.549235 0,0.410069 -1.053504,4.295293 -1.532854,5.653022 -1.1754,3.329245 -3.279435,6.98888 -5.398153,9.389223 -4.014643,4.54828 -9.910421,7.648226 -16.772697,8.818927 -1.391259,0.237348 -7.425081,0.431098 -8.716846,0.279908 z M 57.653524,59.40616 c 0,-2.503309 -0.743253,-6.690271 -1.695619,-9.551919 C 52.94815,40.81059 46.609299,34.889726 37.925926,33.011295 35.875288,32.567691 30.507257,32.606376 28.149919,33.081747 16.755847,35.379427 9.0859324,44.181725 7.4227705,56.86904 7.2934128,57.855836 7.1875747,59.038186 7.1875747,59.496483 v 0.833266 H 32.42055 57.653524 Z"
     id="path245" />
  <path
     style="fill:#ffffff;stroke-width:0.152927"
     d="m 67.244872,98.705874 c -0.486288,-0.074 -0.975477,-0.188368 -1.087087,-0.254143 -0.147249,-0.08678 3.459966,-5.028785 13.14717,-18.012066 7.342553,-9.84086 13.354321,-17.970647 13.359487,-18.066196 0.0052,-0.09555 -5.586955,-7.458989 -12.426936,-16.363202 C 68.253095,30.409091 67.815469,29.816549 68.194495,29.704134 c 0.216325,-0.06416 1.024445,-0.160204 1.795821,-0.213431 3.415683,-0.23569 5.396777,0.824582 7.737303,4.140968 2.454245,3.47752 5.015638,7.025038 6.903927,9.561912 3.362285,4.517151 11.414745,15.135262 11.528752,15.202008 0.05903,0.03456 1.311626,-1.526393 2.783549,-3.468778 7.915823,-10.44591 11.625243,-15.391865 14.124203,-18.83246 3.65741,-5.035585 4.45016,-5.808846 6.59429,-6.432159 1.25228,-0.36405 4.36155,-0.177688 4.36155,0.26142 0,0.215652 -16.4847,22.005931 -21.08196,27.867152 -2.3545,3.001852 -2.62174,3.463194 -2.62174,4.526028 0,1.046694 0.39577,1.780532 2.31022,4.283614 0.86819,1.135129 6.58969,8.735139 12.71444,16.888912 7.71694,10.273413 11.07569,14.858429 10.93974,14.933787 -0.1079,0.05981 -0.77165,0.177954 -1.47501,0.262544 -3.41966,0.411268 -5.70479,-0.789667 -8.09287,-4.253154 -2.98948,-4.335719 -5.0182,-7.223103 -6.66183,-9.481481 C 108.34397,82.6002 96.807828,67.012118 96.380822,66.474099 96.212515,66.262035 96.161789,66.259468 95.979436,66.453789 95.275843,67.203569 80.612224,86.94194 77.01183,91.985661 c -2.622168,3.673343 -3.635722,4.873159 -4.804559,5.687494 -1.301609,0.90684 -3.197247,1.301337 -4.962399,1.032717 z"
     id="path247" />
</svg>
