<?xml version="1.0" encoding="UTF-8" standalone="no"?>
<svg
   viewBox="0 0 128 128"
   version="1.1"
   id="svg46"
   sodipodi:docname="mongodb-invert-wordmark.svg"
   inkscape:version="1.2 (dc2aedaf03, 2022-05-15)"
   xmlns:inkscape="http://www.inkscape.org/namespaces/inkscape"
   xmlns:sodipodi="http://sodipodi.sourceforge.net/DTD/sodipodi-0.dtd"
   xmlns="http://www.w3.org/2000/svg"
   xmlns:svg="http://www.w3.org/2000/svg">
  <defs
     id="defs50" />
  <sodipodi:namedview
     id="namedview48"
     pagecolor="#ffffff"
     bordercolor="#000000"
     borderopacity="0.25"
     inkscape:showpageshadow="2"
     inkscape:pageopacity="0.0"
     inkscape:pagecheckerboard="0"
     inkscape:deskcolor="#d1d1d1"
     showgrid="false"
     inkscape:zoom="6.5390625"
     inkscape:cx="64.076464"
     inkscape:cy="64.076464"
     inkscape:window-width="1920"
     inkscape:window-height="1017"
     inkscape:window-x="-8"
     inkscape:window-y="-8"
     inkscape:window-maximized="1"
     inkscape:current-layer="svg46" />
  <path
     fill-rule="evenodd"
     clip-rule="evenodd"
     fill="#94795D"
     d="M87.259 100.139c.169-.325.331-.612.469-.909.087-.19.221-.228.41-.223 1.133.032 2.266.067 3.4.078.963.01 1.928-.008 2.892-.019 1.086-.013 2.172-.07 3.257-.039 1.445.042 2.853.325 4.16.968 1.561.769 2.742 1.94 3.547 3.483a8.71 8.71 0 01.931 3.14c.172 1.608.059 3.179-.451 4.717-.632 1.906-1.832 3.365-3.499 4.458-1.283.841-2.69 1.338-4.198 1.622-1.596.301-3.197.204-4.798.209-1.756.007-3.511-.031-5.267-.051-.307-.003-.351-.061-.27-.354l.075-.27c.171-.538.263-.562.809-.652a2.83 2.83 0 001.087-.413c.184-.122.26-.44.332-.685.062-.214.065-.449.067-.675.025-3.425.051-6.849.065-10.272a44.077 44.077 0 00-.065-2.596c-.034-.605-.357-1.019-1.077-1.162-.56-.111-1.124-.197-1.687-.296l-.189-.059zm16.076 8.293c-.076-.682-.113-1.37-.235-2.042-.292-1.613-.998-3.018-2.238-4.119-2.005-1.779-4.419-2.053-6.949-1.841-.576.048-.7.245-.709.837-.014.84-.028 1.68-.029 2.52-.004 2.664-.004 5.328 0 7.992.001.758.009 1.516.031 2.272.024.774.305 1.429 1.063 1.729 1.195.473 2.452.529 3.706.336 2.003-.307 3.404-1.474 4.344-3.223.744-1.388.954-2.903 1.016-4.461zm4.869 9.071c-.024-.415.146-.758.356-1.073.057-.085.253-.081.388-.108l1.146-.227c.405-.086.618-.358.675-.755.038-.262.074-.527.077-.792a879.6 879.6 0 00.059-6.291c.01-2.1.002-4.2.002-6.3l-.009-.401c-.041-.675-.367-1.025-1.037-1.124l-1.453-.221c-.179-.024-.244-.11-.179-.269.112-.271.219-.552.377-.796.059-.09.258-.125.392-.122.694.01 1.388.062 2.082.061l6.041-.036c1.164-.001 2.288.202 3.332.759 1.149.612 1.792 1.559 1.976 2.849.192 1.355-.219 2.497-1.209 3.404-.407.374-.934.618-1.406.922l-.154.096c.438.161.855.3 1.261.466 1.188.487 2.133 1.248 2.633 2.463.395.959.395 1.959.161 2.953-.364 1.556-1.389 2.591-2.722 3.374-1.251.735-2.605 1.163-4.047 1.235-1.33.067-2.666.042-3.999.057l-.772.004a996.106 996.106 0 01-3.854-.096l-.117-.032zm5.537-6.089h.013c0 .658-.009 1.316.003 1.974.008.426-.007.864.085 1.274.138.613.418 1.166 1.106 1.342a6.671 6.671 0 002.818.124c1.177-.205 2.116-.795 2.631-1.916.382-.833.439-1.716.308-2.618-.174-1.188-.805-2.05-1.854-2.615-.688-.371-1.422-.598-2.204-.628-.876-.033-1.753-.035-2.629-.062-.246-.007-.28.118-.279.32.005.934.002 1.869.002 2.805zm1.865-4.475c.479-.024 1.021-.031 1.56-.085 1.032-.103 1.759-.622 2.138-1.609.193-.501.185-1.017.19-1.538.015-1.357-.777-2.469-2.066-2.929-.995-.355-2.021-.361-3.053-.333-.418.011-.605.194-.611.615l-.062 5.489c-.003.218.091.312.303.319l1.601.071z"
     id="path2"
     style="fill:#6b86a2;fill-opacity:1" />
  <path
     fill-rule="evenodd"
     clip-rule="evenodd"
     fill="#50382B"
     d="M10.543 116.448l-.073.944c-.68 0-1.307-.005-1.934.002-1.181.012-2.362.031-3.544.048l-.114.007c-.169-.02-.476-.02-.484-.07-.05-.281-.034-.576-.021-.867.001-.033.116-.075.183-.091l.919-.205c.573-.149.775-.396.802-.988.031-.667.062-1.335.065-2.002.009-1.642-.001-3.282.006-4.924.001-.384-.132-.67-.49-.826a43.787 43.787 0 00-1.285-.546c-.204-.082-.469-.127-.445-.401.024-.279.281-.352.523-.407 1.002-.229 2.005-.452 3.004-.696.322-.079.63-.212 1.015-.346.02.208.057.406.053.604l-.059.941c-.001.106.054.248.133.307.048.037.209-.03.289-.092.854-.65 1.758-1.211 2.789-1.538 1.597-.507 2.968-.037 3.928 1.34.338.485.339.485.808.146.805-.585 1.647-1.101 2.589-1.441 2.068-.747 4.055.201 4.774 2.284.262.756.362 1.537.36 2.335l-.019 5.298c-.001.437.144.686.56.822.467.153.951.258 1.477.396l-.122.911c-.598 0-1.148-.004-1.698.001-1.344.012-2.688.019-4.031.05-.234.006-.295-.052-.307-.271-.039-.701-.045-.7.615-.858l.222-.057c.645-.176.86-.374.865-1.028.015-1.878.054-3.761-.041-5.635-.099-1.944-1.642-2.979-3.526-2.481a5.194 5.194 0 00-1.69.814c-.175.125-.208.269-.194.488.053.828.086 1.657.093 2.486.012 1.451-.006 2.902 0 4.354.002.588.203.813.784.949l.863.199.16.036c.012.276.023.552.01.828-.008.173-.142.188-.292.185-.839-.021-1.679-.049-2.518-.047-1.021.002-2.041.031-3.061.049h-.24c0-.293-.014-.573.01-.852.005-.067.123-.161.204-.182l1.006-.213c.427-.105.631-.324.655-.758.114-2.01.196-4.021.007-6.03a3.695 3.695 0 00-.326-1.145c-.515-1.138-1.674-1.613-3.011-1.271-.635.162-1.208.453-1.75.82a.795.795 0 00-.378.695c0 2.005.007 4.01.013 6.014l.011.773c.012.539.241.823.776.939.344.078.692.131 1.082.203z"
     id="path4" />
  <path
     fill-rule="evenodd"
     clip-rule="evenodd"
     fill="#4F382B"
     d="M71.001 105.285c.155.754.152 1.432-.402 1.946-.55.511-1.246.339-1.925.225.063.358.133.662.167.97.247 2.289-.738 3.988-2.861 4.959-.802.366-1.653.502-2.522.572-.432.034-.81.364-.851.719-.042.36.184.73.636.838.533.127 1.089.163 1.636.226 1.174.134 2.361.195 3.521.405 1.754.316 2.733 1.847 2.424 3.609-.275 1.568-1.183 2.709-2.449 3.584-2.133 1.478-4.473 1.91-6.965 1.156-1.425-.432-2.43-1.369-2.777-2.885-.174-.759.011-1.446.582-1.961.679-.61 1.418-1.154 2.129-1.73l.23-.231-.264-.185c-.725-.344-1.305-.815-1.53-1.633-.077-.277.003-.459.238-.601.4-.241.798-.486 1.193-.735.186-.116.37-.236.543-.37.236-.18.215-.314-.067-.418-.656-.242-1.239-.593-1.691-1.133-.755-.901-.969-1.974-.907-3.107.097-1.77 1.058-2.936 2.62-3.686 1.857-.891 3.72-.947 5.613-.135.7.3 1.438.364 2.189.312.561-.04 1.051-.252 1.49-.711zm-6.843 12.681c-1.394-.012-1.831.16-2.649.993-.916.934-.911 2.229.003 3.167.694.711 1.56 1.044 2.523 1.144 1.125.116 2.233.069 3.255-.494 1.09-.603 1.632-1.723 1.387-2.851-.203-.931-.889-1.357-1.724-1.602-.95-.278-1.932-.331-2.795-.357zm-2.738-8.908c.051.387.072.779.158 1.158.223.982.65 1.845 1.627 2.282 1.147.515 2.612.294 3.114-1.316a4.853 4.853 0 00-.113-3.274 2.512 2.512 0 00-.91-1.184c-.996-.695-2.793-.787-3.525.749-.238.499-.331 1.03-.351 1.585z"
     id="path6" />
  <path
     fill-rule="evenodd"
     clip-rule="evenodd"
     fill="#4F372B"
     d="M47.35 105.038c.037.171.111.365.113.56.003.371-.037.742-.058 1.113v.322l.314-.24c.86-.708 1.784-1.311 2.86-1.636 1.942-.585 3.882.478 4.515 2.456.24.752.335 1.525.344 2.311.02 1.746.032 3.492.05 5.238.006.627.078.739.671.92a7.4 7.4 0 001.03.229c.191.03.273.105.263.292l.002.172c-.007.723-.057.756-.758.754-1.678-.003-3.355.007-5.033.021-.5.004-.501.019-.551-.475l-.01-.284c.031-.426.041-.422.46-.484.282-.042.562-.107.837-.179.283-.073.419-.282.457-.562.019-.142.044-.284.043-.426-.024-1.908.007-3.818-.097-5.723-.084-1.541-1.26-2.459-2.807-2.354a4.047 4.047 0 00-2.071.743c-.413.289-.496.706-.494 1.155.008 1.784.025 3.568.044 5.353.004.391.015.782.052 1.17.039.424.188.595.604.687.398.088.804.139 1.229.21l.036.328c.014.765-.066.822-.809.819-1.735-.007-3.47.004-5.204.023-.273.004-.389-.082-.382-.348l-.004-.114c-.045-.689-.025-.715.627-.827l.308-.062c.706-.159.887-.347.897-1.064.033-2.271.045-4.541.068-6.812.003-.326-.12-.579-.424-.714a53.88 53.88 0 00-1.287-.544c-.238-.098-.51-.16-.519-.489-.006-.232.242-.437.581-.506.681-.138 1.368-.253 2.041-.422.67-.167 1.328-.391 2.062-.611z"
     id="path8"
     style="fill:#b0c7d4;fill-opacity:1" />
  <path
     fill-rule="evenodd"
     clip-rule="evenodd"
     fill="#4F382B"
     d="M84.865 110.97c-.032 2.121-.583 3.836-2.083 5.123-1.9 1.633-4.864 2.188-7.287.967-1.034-.521-1.794-1.32-2.289-2.357-.759-1.595-.949-3.272-.553-4.99.392-1.699 1.421-2.93 2.961-3.727 1.584-.819 3.252-1.139 5.011-.709 2.225.543 3.824 2.357 4.142 4.667.057.405.079.815.098 1.026zm-2.577 1.149l-.086-.01c0-.2.011-.4-.002-.6-.073-1.246-.353-2.433-1.075-3.476-.685-.988-1.618-1.571-2.832-1.656-1.359-.096-2.501.664-2.902 2.052-.602 2.084-.398 4.115.66 6.024.461.832 1.144 1.446 2.059 1.769 1.793.631 3.383-.186 3.85-2.022.172-.678.222-1.387.328-2.081z"
     id="path10" />
  <path
     fill-rule="evenodd"
     clip-rule="evenodd"
     fill="#4F372B"
     d="M40.819 111.134c-.037 1.522-.396 2.929-1.336 4.152-1.007 1.31-2.391 2.01-3.965 2.305-1.861.348-3.609.032-5.104-1.217-.71-.594-1.195-1.355-1.515-2.221-.525-1.42-.656-2.875-.333-4.358.345-1.587 1.241-2.8 2.63-3.614 1.606-.939 3.339-1.358 5.19-.936 2.38.544 3.754 2.095 4.262 4.443.102.474.116.964.171 1.446zm-2.606 1.004l-.069-.01v-.286c-.039-1.396-.312-2.726-1.145-3.886-.617-.861-1.443-1.401-2.502-1.552-1.726-.246-2.854.778-3.228 2.169-.488 1.817-.335 3.612.42 5.335.471 1.074 1.215 1.911 2.358 2.317 1.782.633 3.396-.205 3.847-2.034.166-.669.216-1.367.319-2.053z"
     id="path12" />
  <path
     fill-rule="evenodd"
     clip-rule="evenodd"
     fill="#439934"
     d="M82.362 33.544c1.227 3.547 2.109 7.168 2.4 10.92.36 4.656.196 9.28-.786 13.859l-.126.366c-.308.001-.622-.038-.923.009-2.543.4-5.083.814-7.624 1.226-2.627.426-5.256.835-7.878 1.289-.929.16-2.079-.031-2.454 1.253l-.18.061.127-7.678-.129-18.526 1.224-.21c2.001-.327 4.002-.66 6.006-.979 2.39-.379 4.782-.749 7.174-1.119 1.056-.162 2.113-.313 3.169-.471z"
     id="path14" />
  <path
     fill-rule="evenodd"
     clip-rule="evenodd"
     fill="#45A538"
     d="M62.265 84.911c-1.291-1.11-2.627-2.171-3.864-3.339-6.658-6.28-11.529-13.673-13.928-22.586-.661-2.452-1.101-4.945-1.243-7.479-.1-1.774-.243-3.563-.117-5.328.333-4.693 1.012-9.341 2.388-13.862l.076-.105c.134.178.326.336.394.537 1.344 3.956 2.677 7.916 4.004 11.879 4.169 12.451 8.333 24.905 12.509 37.354.082.243.293.442.445.661l-.664 2.268z"
     id="path16" />
  <path
     fill-rule="evenodd"
     clip-rule="evenodd"
     fill="#46A037"
     d="M82.362 33.544c-1.057.157-2.114.309-3.169.471-2.392.37-4.784.74-7.174 1.119-2.003.318-4.004.651-6.006.979l-1.224.21-.01-.798c-.041-.656-.109-1.312-.118-1.968l-.137-12.554c-.032-2.619-.08-5.238-.133-7.856a198.423 198.423 0 00-.141-4.88c-.04-.873-.181-1.742-.237-2.615-.033-.502.011-1.008.022-1.512.624 1.209 1.235 2.427 1.876 3.627 1.013 1.897 2.628 3.295 4.083 4.82 5.746 6.031 9.825 13.039 12.368 20.957z"
     id="path18" />
  <path
     fill-rule="evenodd"
     clip-rule="evenodd"
     fill="#409433"
     d="M64.792 62.527l.18-.061c.375-1.284 1.525-1.093 2.454-1.253 2.622-.454 5.251-.863 7.878-1.289 2.541-.411 5.081-.825 7.624-1.226.301-.047.615-.008.923-.009-.475 1.696-.849 3.429-1.452 5.078-.685 1.87-1.513 3.696-2.392 5.486a37.595 37.595 0 01-4.853 7.458c-1.466 1.762-3.1 3.393-4.737 5.002-.906.889-1.972 1.614-2.966 2.414l-.258-.176-.927-.792-.959-2.104a31.65 31.65 0 01-1.065-7.516l.018-.428.131-1.854c.043-.633.101-1.265.128-1.898.096-2.276.182-4.554.273-6.832z"
     id="path20" />
  <path
     fill-rule="evenodd"
     clip-rule="evenodd"
     fill="#4FAA41"
     d="M64.792 62.527c-.09 2.278-.176 4.557-.273 6.835-.027.634-.084 1.266-.128 1.898l-.584.221c-1.298-3.821-2.597-7.602-3.867-11.392-2.101-6.271-4.176-12.551-6.274-18.824a3423.013 3423.013 0 00-5.118-15.176c-.081-.236-.311-.422-.471-.631l3.74-6.877c.129.223.298.432.379.672 1.73 5.12 3.457 10.241 5.169 15.367 2.228 6.67 4.441 13.343 6.667 20.014.089.266.235.512.375.811l.512-.596-.127 7.678z"
     id="path22" />
  <path
     fill-rule="evenodd"
     clip-rule="evenodd"
     fill="#4AA73C"
     d="M48.076 25.458c.161.209.391.395.471.631a3379.774 3379.774 0 015.118 15.176c2.098 6.273 4.173 12.553 6.274 18.824 1.27 3.79 2.569 7.57 3.867 11.392l.584-.221-.131 1.854-.119.427c-.203 2.029-.374 4.062-.622 6.087-.124 1.015-.389 2.011-.59 3.015-.151-.219-.363-.418-.445-.661-4.177-12.449-8.34-24.903-12.509-37.354a3010.791 3010.791 0 00-4.004-11.879c-.068-.201-.26-.359-.394-.537l2.5-6.754z"
     id="path24" />
  <path
     fill-rule="evenodd"
     clip-rule="evenodd"
     fill="#57AE47"
     d="M64.918 54.849l-.512.596c-.14-.299-.286-.545-.375-.811-2.226-6.671-4.439-13.344-6.667-20.014a4618.057 4618.057 0 00-5.169-15.367c-.081-.24-.25-.449-.379-.672l4.625-6.084c.146.194.354.367.429.586 1.284 3.76 2.556 7.523 3.822 11.289 1.182 3.518 2.346 7.04 3.542 10.552.08.235.359.401.545.601l.01.798.129 18.526z"
     id="path26" />
  <path
     fill-rule="evenodd"
     clip-rule="evenodd"
     fill="#60B24F"
     d="M64.779 35.525c-.187-.199-.465-.365-.545-.601-1.195-3.512-2.36-7.034-3.542-10.552a2495.581 2495.581 0 00-3.822-11.289c-.075-.219-.283-.392-.429-.586 1.504-1.473 2.961-2.999 4.526-4.404 1.391-1.248 2.509-2.586 2.561-4.559l.11-.393.396.998c-.01.504-.055 1.01-.022 1.512.057.873.198 1.742.237 2.615.073 1.625.108 3.253.141 4.88.053 2.618.101 5.237.133 7.856l.137 12.554c.01.657.079 1.313.119 1.969z"
     id="path28" />
  <path
     fill-rule="evenodd"
     clip-rule="evenodd"
     fill="#A9AA88"
     d="M62.929 82.642c.201-1.004.466-2 .59-3.015.248-2.024.419-4.058.622-6.087l.051-.008.05.009a31.65 31.65 0 001.065 7.516c-.135.178-.324.335-.396.535-.555 1.566-1.079 3.145-1.637 4.71-.076.214-.29.381-.439.568l-.571-1.96.665-2.268z"
     id="path30" />
  <path
     fill-rule="evenodd"
     clip-rule="evenodd"
     fill="#B6B598"
     d="M62.835 86.871c.149-.188.363-.354.439-.568.558-1.565 1.082-3.144 1.637-4.71.071-.2.261-.357.396-.535l.959 2.104c-.189.268-.451.511-.556.81l-1.836 5.392c-.076.217-.333.369-.507.552l-.532-3.045z"
     id="path32" />
  <path
     fill-rule="evenodd"
     clip-rule="evenodd"
     fill="#C2C1A7"
     d="M63.367 89.915c.173-.183.431-.335.507-.552l1.836-5.392c.104-.299.367-.542.556-.81l.928.791c-.448.443-.697.955-.547 1.602l-.282.923c-.128.158-.314.296-.377.477-.641 1.836-1.252 3.682-1.898 5.517-.082.232-.309.415-.468.621l-.255-3.177z"
     id="path34" />
  <path
     fill-rule="evenodd"
     clip-rule="evenodd"
     fill="#CECDB7"
     d="M63.621 93.091c.16-.206.387-.389.468-.621.646-1.835 1.258-3.681 1.898-5.517.063-.181.249-.318.377-.477l-.389 4.236c-.104.12-.254.225-.304.364l-1.294 3.708c-.091.253-.265.479-.401.716-.121-.158-.337-.311-.347-.475-.038-.642-.011-1.289-.008-1.934z"
     id="path36" />
  <path
     fill-rule="evenodd"
     clip-rule="evenodd"
     fill="#DBDAC7"
     d="M63.977 95.501c.136-.237.31-.463.401-.716l1.294-3.708c.05-.14.201-.244.304-.364l.01 2.78-.931 2.387-1.078-.379z"
     id="path38" />
  <path
     fill-rule="evenodd"
     clip-rule="evenodd"
     fill="#EBE9DC"
     d="M65.055 95.88l.931-2.387.192 2.824-1.123-.437z"
     id="path40" />
  <path
     fill-rule="evenodd"
     clip-rule="evenodd"
     fill="#CECDB7"
     d="M66.646 85.554c-.149-.646.099-1.158.547-1.602l.258.176-.805 1.426z"
     id="path42" />
  <path
     fill-rule="evenodd"
     clip-rule="evenodd"
     fill="#4FAA41"
     d="M64.242 73.542l-.05-.009-.051.008.119-.427-.018.428z"
     id="path44" />
  <path
     style="fill:#b0c7d4;fill-opacity:1;stroke-width:0.152927"
     d="m 61.894877,124.54567 c -1.83456,-0.43221 -3.167308,-1.87678 -3.162085,-3.42739 0.0029,-0.8564 0.201086,-1.13525 1.635189,-2.3006 0.693907,-0.56386 1.261649,-1.06926 1.261649,-1.1231 0,-0.0538 -0.278116,-0.26897 -0.618034,-0.47807 -0.641585,-0.39468 -0.944248,-0.75208 -1.127414,-1.33133 -0.09336,-0.29524 0.03318,-0.4295 0.971984,-1.03125 0.593625,-0.38051 1.079318,-0.78716 1.079318,-0.90367 0,-0.11651 -0.21992,-0.30293 -0.488711,-0.41427 -2.418656,-1.00184 -3.061229,-4.62062 -1.167043,-6.57245 1.09496,-1.12828 3.451412,-1.95894 4.943687,-1.74267 0.33644,0.0488 1.179249,0.26441 1.872909,0.47921 1.505968,0.46636 3.019603,0.458 3.547348,-0.0196 0.312653,-0.28294 0.31451,-0.28083 0.31451,0.35774 0,0.94011 -0.498013,1.39309 -1.53158,1.39309 h -0.780847 l 0.103228,1.04761 c 0.272422,2.76464 -1.443665,4.74672 -4.581497,5.29162 -1.379571,0.23956 -1.652607,0.42223 -1.589873,1.06365 0.06511,0.6657 0.434273,0.79017 3.181047,1.07259 2.843376,0.29235 3.36689,0.42449 4.046822,1.02148 2.413948,2.11948 0.174331,6.30305 -4.036347,7.53984 -0.897157,0.26352 -2.913653,0.3039 -3.87426,0.0776 z m 5.486488,-1.75005 c 0.842777,-0.51568 1.435839,-1.48078 1.435839,-2.33657 0,-0.66911 -0.386269,-1.47553 -0.853369,-1.78158 -0.630687,-0.41324 -2.200655,-0.72594 -3.752344,-0.74736 -1.422986,-0.0196 -1.517837,-2.4e-4 -2.141733,0.43825 -1.392582,0.97875 -1.696383,2.56167 -0.70775,3.68766 0.889278,1.01283 1.699669,1.28115 3.72545,1.23348 1.415538,-0.0333 1.609438,-0.0751 2.293907,-0.49388 z m -1.626082,-10.54388 c 0.586901,-0.56228 0.823528,-1.28753 0.827662,-2.53672 0.0078,-2.37173 -1.286669,-3.73153 -3.295835,-3.46204 -1.223683,0.16413 -1.87445,1.16779 -1.868704,2.88205 0.0051,1.52582 0.575145,2.77481 1.511104,3.31096 0.886174,0.50764 2.18646,0.41825 2.825773,-0.19425 z"
     id="path1069" />
  <path
     style="fill:#b0c7d4;fill-opacity:1;stroke-width:0.152927"
     d="m 77.082197,117.51037 c -3.015212,-0.59106 -4.998084,-3.73955 -4.4567,-7.07655 0.344117,-2.12108 1.491103,-3.63487 3.447927,-4.55058 3.269563,-1.53001 6.764665,-0.45275 8.13138,2.50626 0.407761,0.88282 0.440357,1.08923 0.440357,2.78852 0,1.68665 -0.03436,1.90849 -0.4247,2.742 -0.581402,1.24149 -1.288632,2.05369 -2.336222,2.68299 -1.489658,0.89485 -3.20876,1.21968 -4.802042,0.90736 z m 3.457684,-1.30728 c 1.111366,-0.52738 1.74717,-2.05206 1.744751,-4.18397 -0.0038,-3.38452 -1.676945,-5.64545 -4.184699,-5.65495 -1.754085,-0.007 -2.675444,0.96736 -3.02083,3.19343 -0.421023,2.71356 0.814594,5.76251 2.678418,6.60913 0.772544,0.35092 2.08337,0.36805 2.78236,0.0364 z"
     id="path1071" />
  <path
     style="fill:#b0c7d4;fill-opacity:1;stroke-width:0.152927"
     d="m 32.802867,117.47178 c -2.355237,-0.6108 -3.811621,-2.34741 -4.231027,-5.04514 -0.431179,-2.77345 0.672769,-5.08256 3.026863,-6.33124 2.726612,-1.44628 5.520116,-1.17787 7.409947,0.71196 1.078094,1.07809 1.529306,2.17149 1.634592,3.961 0.224395,3.81396 -2.21715,6.55774 -6.078648,6.83113 -0.566356,0.0401 -1.327407,-0.0151 -1.761727,-0.12771 z m 4.021222,-1.45424 c 1.464166,-1.04258 1.866022,-4.63713 0.797176,-7.13065 -0.380292,-0.88718 -1.31145,-1.89725 -2.065709,-2.24077 -1.29252,-0.58866 -2.95792,-0.28668 -3.763911,0.6825 -0.702776,0.84505 -1.047065,2.95023 -0.757643,4.63267 0.345108,2.00615 1.237934,3.47055 2.507718,4.11311 1.030869,0.52166 2.50579,0.49612 3.282369,-0.0569 z"
     id="path1073" />
  <path
     style="fill:#b0c7d4;fill-opacity:1;stroke-width:0.152927"
     d="m 4.4348865,116.93233 c 0,-0.39193 0.063912,-0.44946 0.5933788,-0.53412 0.3263583,-0.0522 0.7564658,-0.22685 0.9557945,-0.38813 0.361441,-0.29245 0.3625387,-0.30355 0.4080993,-4.12628 0.029142,-2.44514 -0.011793,-3.94045 -0.113053,-4.12965 -0.087305,-0.16313 -0.5740127,-0.45735 -1.0815723,-0.65381 -1.3677544,-0.52943 -1.1975159,-0.71258 1.213399,-1.30544 1.1281606,-0.27743 2.0868936,-0.46872 2.1305178,-0.42509 0.043624,0.0436 0.063307,0.38859 0.04374,0.7666 -0.046952,0.90705 0.2229746,0.99841 1.122109,0.37979 1.2041914,-0.82851 2.3472134,-1.27464 3.2827014,-1.28126 1.059437,-0.008 1.71891,0.31547 2.548766,1.24824 l 0.628373,0.7063 0.977362,-0.63604 c 1.536672,-1.00001 2.380266,-1.32674 3.424196,-1.32622 1.940735,9.7e-4 3.208868,1.27401 3.586318,3.60019 0.08695,0.53584 0.158605,2.32498 0.159242,3.97585 9.17e-4,2.21442 0.05129,3.04275 0.192313,3.15854 0.105137,0.0863 0.510517,0.2496 0.900843,0.36282 0.390327,0.11321 0.717209,0.25746 0.726404,0.32054 0.110232,0.7562 0.228013,0.72641 -2.87106,0.72641 -2.702766,0 -2.892619,-0.0185 -2.963334,-0.28893 -0.107068,-0.40942 0.0269,-0.54093 0.773193,-0.75899 0.46403,-0.13558 0.699709,-0.30466 0.802867,-0.57598 0.186568,-0.49072 0.184684,-5.02423 -0.0026,-6.32023 -0.155453,-1.07557 -0.449959,-1.58257 -1.226142,-2.11083 -0.671583,-0.45708 -2.081122,-0.46928 -3.057348,-0.0265 -1.272249,0.57709 -1.203059,0.29038 -1.115695,4.62314 0.05318,2.63758 0.134233,3.91293 0.257,4.04402 0.09863,0.10531 0.486398,0.28038 0.861718,0.38904 0.569058,0.16476 0.682404,0.25996 0.682404,0.57317 v 0.37559 l -2.943847,0.0415 -2.943847,0.0415 v -0.44864 c 0,-0.40617 0.05945,-0.45869 0.627883,-0.55472 1.047105,-0.17691 1.146593,-0.37929 1.245914,-2.53441 0.128267,-2.78319 -0.06544,-4.99604 -0.505957,-5.77983 -0.407888,-0.72573 -1.310934,-1.24098 -2.175022,-1.24098 -0.734251,0 -2.1123304,0.52425 -2.6235888,0.99807 l -0.4073626,0.37753 0.04571,3.83609 c 0.051229,4.29933 0.00875,4.14624 1.2067677,4.34864 0.5349307,0.0904 0.5976037,0.14767 0.5976037,0.54631 v 0.44534 H 7.4169654 4.4348865 Z"
     id="path1075" />
</svg>
