<?xml version="1.0" encoding="UTF-8" standalone="no"?>
<svg
   viewBox="0 0 128 128"
   version="1.1"
   id="svg14"
   sodipodi:docname="nodejs-original-wordmark.svg"
   inkscape:version="1.2 (dc2aedaf03, 2022-05-15)"
   xmlns:inkscape="http://www.inkscape.org/namespaces/inkscape"
   xmlns:sodipodi="http://sodipodi.sourceforge.net/DTD/sodipodi-0.dtd"
   xmlns="http://www.w3.org/2000/svg"
   xmlns:svg="http://www.w3.org/2000/svg">
  <defs
     id="defs18" />
  <sodipodi:namedview
     id="namedview16"
     pagecolor="#ffffff"
     bordercolor="#000000"
     borderopacity="0.25"
     inkscape:showpageshadow="2"
     inkscape:pageopacity="0.0"
     inkscape:pagecheckerboard="0"
     inkscape:deskcolor="#d1d1d1"
     showgrid="false"
     inkscape:zoom="6.5390625"
     inkscape:cx="64.076464"
     inkscape:cy="64.076464"
     inkscape:window-width="1920"
     inkscape:window-height="1017"
     inkscape:window-x="-8"
     inkscape:window-y="-8"
     inkscape:window-maximized="1"
     inkscape:current-layer="svg14" />
  <path
     fill="#83CD29"
     d="M114.325 80.749c-.29 0-.578-.076-.832-.224l-2.65-1.568c-.396-.221-.203-.3-.072-.345.528-.184.635-.227 1.198-.545.059-.033.136-.021.197.015l2.035 1.209a.261.261 0 00.246 0l7.937-4.581a.248.248 0 00.122-.215v-9.16a.256.256 0 00-.123-.219l-7.934-4.577a.254.254 0 00-.245 0l-7.933 4.578a.259.259 0 00-.125.218v9.16c0 .088.049.171.125.212l2.174 1.257c1.18.589 1.903-.105 1.903-.803v-9.045c0-.127.103-.228.23-.228h1.007c.125 0 .229.101.229.228v9.045c0 1.574-.857 2.477-2.35 2.477-.459 0-.82 0-1.828-.496l-2.081-1.198a1.676 1.676 0 01-.832-1.448v-9.16c0-.595.317-1.15.832-1.446l7.937-4.587a1.743 1.743 0 011.667 0l7.937 4.587c.514.297.833.852.833 1.446v9.16a1.68 1.68 0 01-.833 1.448l-7.937 4.582a1.651 1.651 0 01-.834.223m2.453-6.311c-3.475 0-4.202-1.595-4.202-2.932a.23.23 0 01.23-.229h1.026a.23.23 0 01.228.194c.154 1.045.617 1.572 2.718 1.572 1.671 0 2.383-.378 2.383-1.266 0-.512-.202-.891-2.8-1.146-2.172-.215-3.515-.694-3.515-2.433 0-1.601 1.35-2.557 3.612-2.557 2.543 0 3.801.883 3.96 2.777a.235.235 0 01-.06.176.236.236 0 01-.168.073h-1.031a.228.228 0 01-.223-.179c-.248-1.1-.848-1.451-2.479-1.451-1.825 0-2.037.637-2.037 1.112 0 .577.25.745 2.715 1.071 2.439.323 3.598.779 3.598 2.494.001 1.733-1.441 2.724-3.955 2.724"
     id="path2" />
  <path
     fill="#404137"
     d="M97.982 68.43c.313-.183.506-.517.506-.88v-2.354c0-.362-.192-.696-.506-.879l-8.364-4.856a1.017 1.017 0 00-1.019-.002l-8.416 4.859a1.018 1.018 0 00-.508.88v9.716c0 .365.196.703.514.884l8.363 4.765c.308.177.686.178.997.006l5.058-2.812a.508.508 0 00.006-.885l-8.468-4.86a.507.507 0 01-.256-.44v-3.046c0-.182.097-.349.254-.439l2.637-1.52a.505.505 0 01.507 0l2.637 1.52a.507.507 0 01.255.439v2.396a.507.507 0 00.764.44l5.039-2.932"
     id="path4" />
  <path
     fill="#83CD29"
     d="M88.984 67.974a.2.2 0 01.195 0l1.615.933c.06.035.097.1.097.169v1.865c0 .07-.037.134-.097.169l-1.615.932a.194.194 0 01-.195 0l-1.614-.932a.194.194 0 01-.098-.169v-1.865c0-.069.037-.134.098-.169l1.614-.933"
     id="path6" />
  <path
     fill="#404137"
     d="M67.083 71.854c0 .09-.048.174-.127.22l-2.89 1.666a.251.251 0 01-.254 0l-2.89-1.666a.255.255 0 01-.127-.22v-3.338c0-.09.049-.175.127-.221l2.89-1.668a.248.248 0 01.255 0l2.891 1.668a.258.258 0 01.126.221v3.338zm.781-24.716a.511.511 0 00-.756.444v12.915a.359.359 0 01-.177.308.359.359 0 01-.356 0l-2.108-1.215a1.017 1.017 0 00-1.015 0l-8.418 4.858a1.018 1.018 0 00-.509.881v9.719c0 .363.194.698.508.881l8.418 4.861c.314.182.702.182 1.017 0l8.42-4.861a1.02 1.02 0 00.508-.881V50.821c0-.368-.2-.708-.521-.888l-5.011-2.795"
     id="path8" />
  <path
     fill="#83CD29"
     d="M38.238 59.407a1.014 1.014 0 011.016 0l8.418 4.857c.314.182.508.518.508.881v9.722c0 .363-.194.699-.508.881l-8.417 4.861a1.02 1.02 0 01-1.017 0l-8.415-4.861a1.02 1.02 0 01-.508-.881v-9.723c0-.362.194-.698.508-.88l8.415-4.857"
     id="path10" />
  <path
     fill="#404137"
     d="M22.93 65.064c0-.366-.192-.702-.508-.883l-8.415-4.843a.99.99 0 00-.464-.133h-.087a.993.993 0 00-.464.133l-8.416 4.843a1.02 1.02 0 00-.509.883l.018 13.04c0 .182.095.351.254.439a.487.487 0 00.505 0l5-2.864c.316-.188.509-.519.509-.882v-6.092c0-.364.192-.699.507-.881l2.13-1.226a.994.994 0 01.508-.137c.174 0 .352.044.507.137l2.128 1.226c.315.182.509.517.509.881v6.092c0 .363.195.696.509.882l5 2.864a.508.508 0 00.76-.439l.019-13.04"
     id="path12" />
  <path
     style="fill:#bfbec8;fill-opacity:1;stroke-width:0.152927"
     d="M 4.3125448,78.344564 C 4.042291,78.07431 4.0495892,64.927865 4.3201912,64.570988 c 0.2214899,-0.292106 8.8971168,-5.311729 9.1804868,-5.311729 0.222806,0 8.625442,4.807775 9.017841,5.15978 0.247336,0.221875 0.267622,0.760282 0.267622,7.102891 0,5.865907 -0.03233,6.875226 -0.222582,6.948231 -0.258137,0.09906 -5.226939,-2.707515 -5.62688,-3.178278 -0.237409,-0.27945 -0.267623,-0.698886 -0.267623,-3.715231 0,-3.048071 -0.02772,-3.424216 -0.267622,-3.631948 -0.590943,-0.511693 -2.487721,-1.49787 -2.88095,-1.49787 -0.589127,0 -2.896294,1.325592 -3.105209,1.78411 -0.106648,0.234066 -0.169158,1.572816 -0.169158,3.622769 0,2.369838 -0.05183,3.317307 -0.191159,3.494166 -0.1847523,0.234526 -5.2343172,3.180197 -5.4515956,3.180197 -0.059018,0 -0.1898857,-0.08258 -0.2908176,-0.183512 z"
     id="path607" />
  <path
     style="fill:#bfbec8;fill-opacity:1;stroke-width:0.152927"
     d="m 59.412186,78.360175 c -2.355077,-1.353366 -4.402389,-2.599442 -4.549581,-2.769058 -0.24334,-0.280412 -0.267623,-0.77017 -0.267623,-5.397569 0,-4.625797 0.02437,-5.117637 0.267623,-5.401769 0.351483,-0.41055 8.737355,-5.226665 9.100725,-5.226665 0.154171,0 0.829037,0.316504 1.499703,0.703344 0.670665,0.386839 1.320496,0.664546 1.44407,0.617126 0.192022,-0.07369 0.230472,-1.057082 0.264523,-6.765566 0.03534,-5.924872 0.06744,-6.696755 0.284195,-6.833445 0.189379,-0.11943 0.843061,0.182428 2.905615,1.341756 1.463695,0.822719 2.711823,1.572751 2.773618,1.666737 0.146853,0.223355 0.146853,25.044049 0,25.273724 -0.178529,0.279214 -8.856198,5.253256 -9.163679,5.252621 -0.152476,-3.15e-4 -2.204111,-1.107871 -4.559189,-2.461236 z m 6.222042,-5.422586 1.500778,-0.849748 V 70.191646 68.295451 L 66.026284,67.656747 C 65.416487,67.30546 64.706877,66.891925 64.449373,66.737779 l -0.46819,-0.280263 -1.634558,0.918783 -1.634558,0.918785 v 1.888318 1.888318 l 1.491039,0.8527 c 0.820072,0.468986 1.589883,0.855 1.710692,0.857808 0.120809,0.0028 0.895003,-0.377279 1.72043,-0.844639 z"
     id="path609" />
  <path
     style="fill:#bfbec8;fill-opacity:1;stroke-width:0.152927"
     d="m 84.421576,78.102083 c -3.583907,-2.04056 -4.527075,-2.642573 -4.610801,-2.943015 -0.170982,-0.613552 -0.154174,-9.684234 0.01886,-10.180453 0.129915,-0.372557 0.853663,-0.84638 4.531481,-2.966668 2.40728,-1.387813 4.507899,-2.545609 4.668042,-2.572879 0.166152,-0.02829 2.191613,1.053147 4.717379,2.518716 4.925394,2.857947 4.738525,2.683932 4.738525,4.412586 0,1.673681 0.002,1.671428 -3.024919,3.426874 -2.011322,1.16646 -2.767711,1.533539 -2.93856,1.426095 -0.173156,-0.108894 -0.240863,-0.50671 -0.273702,-1.608151 l -0.04363,-1.463464 -1.456025,-0.852445 c -0.800813,-0.468845 -1.565814,-0.852445 -1.700002,-0.852445 -0.260106,0 -2.540272,1.258269 -2.988488,1.649144 -0.225074,0.19628 -0.26725,0.503144 -0.265281,1.930113 0.0013,0.933201 0.0529,1.76947 0.114696,1.858376 0.06179,0.08891 2.004826,1.246733 4.317849,2.572948 2.313023,1.326216 4.30281,2.505934 4.42175,2.621597 0.171786,0.167053 0.177856,0.256563 0.02952,0.435295 -0.198899,0.23966 -5.392167,3.155321 -5.617638,3.153917 -0.07343,-4.59e-4 -2.161008,-1.15522 -4.639058,-2.566141 z"
     id="path611" />
</svg>
