<?xml version="1.0" encoding="UTF-8" standalone="no"?>
<svg
   viewBox="0 0 128 128"
   version="1.1"
   id="svg281"
   sodipodi:docname="pandas-inverse-wordmark.svg"
   inkscape:version="1.2 (dc2aedaf03, 2022-05-15)"
   xmlns:inkscape="http://www.inkscape.org/namespaces/inkscape"
   xmlns:sodipodi="http://sodipodi.sourceforge.net/DTD/sodipodi-0.dtd"
   xmlns="http://www.w3.org/2000/svg"
   xmlns:svg="http://www.w3.org/2000/svg">
  <defs
     id="defs285" />
  <sodipodi:namedview
     id="namedview283"
     pagecolor="#ffffff"
     bordercolor="#000000"
     borderopacity="0.25"
     inkscape:showpageshadow="2"
     inkscape:pageopacity="0.0"
     inkscape:pagecheckerboard="0"
     inkscape:deskcolor="#d1d1d1"
     showgrid="false"
     inkscape:zoom="6.5390625"
     inkscape:cx="64.076464"
     inkscape:cy="64.076464"
     inkscape:window-width="1920"
     inkscape:window-height="1017"
     inkscape:window-x="-8"
     inkscape:window-y="1072"
     inkscape:window-maximized="1"
     inkscape:current-layer="svg281" />
  <path
     style="-inkscape-stroke:none"
     d="M16.25 112.609c-2.238 0-4.513-.925-5.941-2.739v9.796H5.833v-24.18h4.049l.159 2.651c1.389-2.044 3.857-3.124 6.21-3.121 4.511 0 7.838 3.779 7.838 8.795 0 5.015-3.329 8.801-7.84 8.799zm-1.387-14.27c-2.613 0-4.746 2.044-4.746 5.477 0 3.433 2.12 5.477 4.744 5.477 2.623 0 4.739-2.044 4.739-5.477 0-3.433-2.116-5.477-4.737-5.477zm26.095 13.811l-.155-2.66c-1.388 2.043-3.857 3.123-6.208 3.123-4.513 0-7.837-3.781-7.837-8.795 0-5.013 3.317-8.795 7.837-8.792 2.35 0 4.82 1.088 6.208 3.123l.155-2.66h4.05v16.663zm-4.974-13.81c-2.613 0-4.744 2.044-4.744 5.477 0 3.433 2.12 5.477 4.744 5.477 2.623 0 4.743-2.044 4.743-5.475 0-3.43-2.12-5.466-4.743-5.479zm24.678 13.814v-9.228c0-3.24-1.12-4.32-3.163-4.32-2.12 0-4.435 1.927-4.437 4.241v9.296H48.59V95.489h4.1l.191 3.087c1.12-2.122 3.627-3.548 6.172-3.548 4.434 0 6.095 3.087 6.095 7.214v9.912zm20.877.002l-.155-2.662c-1.387 2.044-3.855 3.123-6.209 3.123-4.512 0-7.837-3.78-7.837-8.794 0-5.014 3.318-8.793 7.837-8.793 2.236 0 4.513.927 5.94 2.74v-8.755h4.473v23.141zm-4.972-13.802c-2.624 0-4.746 2.044-4.746 5.477 0 3.433 2.12 5.475 4.743 5.478 2.624 0 4.744-2.045 4.744-5.478s-2.12-5.477-4.741-5.477zm25.833 13.804l-.154-2.66c-1.389 2.044-3.858 3.124-6.209 3.122-4.513 0-7.837-3.78-7.837-8.793 0-5.014 3.318-8.795 7.837-8.793 2.351 0 4.82 1.089 6.209 3.124l.155-2.66h4.06v16.66zm-4.974-13.804c-2.623 0-4.743 2.044-4.743 5.477 0 3.433 2.12 5.478 4.743 5.478s4.744-2.045 4.744-5.478-2.12-5.477-4.744-5.477zm18.938 14.346a13.094 13.094 0 01-6.673-1.89l.732-3.095c1.35.81 3.394 1.853 5.862 1.853 1.774 0 3.009-.54 3.009-1.93 0-1.194-1.272-1.619-3.549-2.159-4.086-.888-5.553-3.047-5.551-5.4 0-2.613 2.044-5.09 6.557-5.09 2.739 0 5.129 1.197 5.66 1.504l-.725 2.95a9.692 9.692 0 00-4.82-1.39c-1.813 0-2.701.617-2.701 1.62 0 1.117 1.158 1.62 2.932 2.044 4.395.926 6.17 2.97 6.17 5.208 0 3.579-2.624 5.775-6.903 5.775zM53.942 16.057h7.947V32.56h-7.947zm0 33.898h7.947v16.502h-7.947z"
     color="#000"
     fill="#130754"
     id="path271" />
  <path
     style="-inkscape-stroke:none"
     d="M53.942 37.379h7.947v7.786h-7.947z"
     color="#000"
     fill="#ffca00"
     id="path273" />
  <path
     style="-inkscape-stroke:none"
     d="M41.175 29.626h7.947V84.48h-7.947zm25.27 33.944h7.948v16.502h-7.948zm0-33.924h7.948v16.502h-7.948z"
     color="#000"
     fill="#130754"
     id="path275" />
  <path
     style="-inkscape-stroke:none"
     d="M66.445 50.965h7.948v7.785h-7.948z"
     color="#000"
     fill="#e70488"
     id="path277" />
  <path
     style="-inkscape-stroke:none"
     d="M78.945 11.762h7.948v54.853h-7.948z"
     color="#000"
     fill="#130754"
     id="path279" />
  <path
     style="fill:#ecf8ab;fill-opacity:1;stroke-width:0.152927"
     d="M 79.063321,39.225806 V 11.851852 h 3.899642 3.899642 v 27.373954 27.373955 h -3.899642 -3.899642 z"
     id="path770" />
  <path
     style="fill:#ecf8ab;fill-opacity:1;stroke-width:0.152927"
     d="m 66.523297,37.925926 v -8.181601 h 3.899642 3.899642 v 8.181601 8.181601 h -3.899642 -3.899642 z"
     id="path772" />
  <path
     style="fill:#ecf8ab;fill-opacity:1;stroke-width:0.152927"
     d="m 66.523297,71.875747 v -8.181601 h 3.899642 3.899642 v 8.181601 8.181601 h -3.899642 -3.899642 z"
     id="path774" />
  <path
     style="fill:#ecf8ab;fill-opacity:1;stroke-width:0.152927"
     d="m 53.983274,58.265233 v -8.181601 h 3.899641 3.899642 v 8.181601 8.181601 h -3.899642 -3.899641 z"
     id="path776" />
  <path
     style="fill:#ecf8ab;fill-opacity:1;stroke-width:0.152927"
     d="m 53.983274,24.315412 v -8.181601 h 3.899641 3.899642 v 8.181601 8.181601 h -3.899642 -3.899641 z"
     id="path778" />
  <path
     style="fill:#ecf8ab;fill-opacity:1;stroke-width:0.152927"
     d="M 41.290323,57.041816 V 29.744325 h 3.899641 3.899642 v 27.297491 27.297491 h -3.899642 -3.899641 z"
     id="path780" />
  <path
     style="fill:#0035ff;fill-opacity:1;stroke-width:0.152927"
     d="m 53.983274,41.213859 v -3.823178 h 3.899641 3.899642 v 3.823178 3.823178 h -3.899642 -3.899641 z"
     id="path1350" />
  <path
     style="fill:#18fb77;fill-opacity:1;stroke-width:0.152927"
     d="m 66.523297,54.824373 v -3.823178 h 3.899642 3.899642 v 3.823178 3.823178 h -3.899642 -3.899642 z"
     id="path1567" />
  <path
     style="fill:#ecf8ab;fill-opacity:1;stroke-width:0.152927"
     d="M 5.9641577,107.58423 V 95.502987 h 1.8908025 1.8908026 l 0.09725,0.709516 c 0.053487,0.390234 0.098597,1.026793 0.1002431,1.414576 l 0.00299,0.70506 0.5371301,-0.640545 c 1.079769,-1.287658 3.122384,-2.329349 5.038724,-2.569643 2.044768,-0.256399 4.456858,0.655307 6.008309,2.270982 4.510575,4.697297 2.543068,13.284587 -3.408548,14.876777 -2.361066,0.63164 -5.334983,-0.0985 -7.034662,-1.72706 -0.381441,-0.36548 -0.726729,-0.66451 -0.767307,-0.66451 -0.04058,0 -0.07378,2.20215 -0.07378,4.89366 v 4.89367 H 8.1051374 5.9641577 Z m 10.8000813,1.38056 c 1.516113,-0.66281 2.50747,-2.11363 2.819808,-4.1267 0.585304,-3.77238 -1.836535,-6.841595 -5.154069,-6.531799 -1.771756,0.165449 -3.055874,1.113863 -3.856115,2.848019 -0.310429,0.67271 -0.404092,1.15206 -0.452958,2.31816 -0.07287,1.73892 0.177233,2.7876 0.926747,3.88586 1.237631,1.8135 3.675782,2.49866 5.716587,1.60646 z"
     id="path2681" />
  <path
     style="fill:#ecf8ab;fill-opacity:1;stroke-width:0.152927"
     d="m 32.389612,112.18263 c -2.566641,-0.82066 -4.50089,-2.99507 -5.246808,-5.89828 -0.31524,-1.22695 -0.310973,-3.76209 0.0084,-4.99993 0.844725,-3.27388 3.370396,-5.650771 6.466078,-6.085182 2.321042,-0.325708 4.917093,0.567635 6.41623,2.20793 l 0.762602,0.834409 0.09417,-0.470848 c 0.05179,-0.258967 0.09417,-0.87515 0.09417,-1.369295 v -0.898447 h 1.988053 1.988052 v 8.258063 8.25807 h -1.988052 -1.988053 v -0.82199 c 0,-0.45209 -0.04066,-1.02528 -0.09035,-1.27375 l -0.09036,-0.45178 -0.86544,0.85385 c -0.996638,0.98328 -2.036112,1.58423 -3.31762,1.91802 -1.213335,0.31604 -3.13898,0.28834 -4.231087,-0.0608 z m 5.558684,-3.24626 c 2.040467,-0.87779 3.232875,-3.66448 2.733854,-6.3891 -0.329858,-1.80101 -1.29762,-3.160512 -2.756224,-3.871918 -1.065755,-0.5198 -2.851205,-0.48258 -4.003877,0.08347 -1.674066,0.82209 -2.562714,2.330968 -2.69026,4.567918 -0.17386,3.04925 1.108831,5.19084 3.51115,5.86221 1.000594,0.27964 2.185159,0.1863 3.205357,-0.25258 z"
     id="path2683" />
  <path
     style="fill:#ecf8ab;fill-opacity:1;stroke-width:0.152927"
     d="m 48.630824,103.76105 v -8.258063 h 1.966752 1.966751 l 0.09643,0.802867 c 0.05304,0.441577 0.09703,1.129749 0.09777,1.529271 7.32e-4,0.399523 0.07015,0.726404 0.154257,0.726404 0.08411,0 0.152927,-0.06137 0.152927,-0.136387 0,-0.07501 0.309505,-0.480632 0.68779,-0.901376 3.052532,-3.395151 8.578467,-3.167436 10.400714,0.428597 0.819506,1.617214 0.873354,2.085707 0.953277,8.293757 l 0.07432,5.773 h -2.234875 -2.234874 v -5.11554 c 0,-5.36411 -0.08599,-6.29203 -0.661414,-7.137214 -0.634125,-0.931405 -1.061199,-1.128373 -2.446574,-1.128373 -1.467359,0 -2.298623,0.331293 -3.321141,1.323613 -1.257213,1.220084 -1.285433,1.368104 -1.343918,7.049144 l -0.05156,5.00837 H 50.759138 48.63082 Z"
     id="path2685" />
  <path
     style="fill:#ecf8ab;fill-opacity:1;stroke-width:0.152927"
     d="m 72.777012,112.11479 c -1.222075,-0.4314 -2.116982,-1.02799 -3.06851,-2.04561 -2.399514,-2.56619 -2.961809,-7.15864 -1.296265,-10.587055 0.547623,-1.127245 1.984053,-2.745706 2.927715,-3.298729 2.503012,-1.466863 5.742298,-1.367827 8.164433,0.249612 0.511748,0.341733 1.061872,0.788406 1.222497,0.992609 0.160626,0.204202 0.333756,0.371277 0.384733,0.371277 0.05098,0 0.09269,-1.961291 0.09269,-4.358423 v -4.358423 h 2.14098 2.140979 v 11.469532 11.46954 h -1.895227 c -2.18568,0 -2.080878,0.0777 -2.080878,-1.54178 0,-0.58189 -0.03051,-1.05799 -0.0678,-1.05799 -0.03729,0 -0.417632,0.36989 -0.845198,0.82198 -1.900253,2.00924 -5.197708,2.79921 -7.82014,1.87346 z m 5.760654,-3.1427 c 0.93444,-0.41335 1.967084,-1.52918 2.385335,-2.57748 0.499723,-1.25252 0.50386,-3.85192 0.0081,-5.09253 -0.463661,-1.16029 -1.245136,-2.026003 -2.292271,-2.539365 -1.156888,-0.567169 -2.935554,-0.600755 -4.016785,-0.07585 -2.10057,1.019768 -3.19982,3.493425 -2.772852,6.239785 0.356994,2.29628 1.65213,3.83196 3.656194,4.33526 0.798811,0.20061 2.233581,0.0635 3.032276,-0.28982 z"
     id="path2687" />
  <path
     style="fill:#ecf8ab;fill-opacity:1;stroke-width:0.152927"
     d="m 94.033735,112.25624 c -2.967324,-0.81831 -5.102358,-3.48327 -5.641826,-7.04216 -0.53314,-3.51714 0.95668,-7.183313 3.611101,-8.886241 3.062387,-1.964657 7.49284,-1.362066 9.7227,1.322394 l 0.5547,0.667778 0.1101,-1.407512 0.11011,-1.407512 h 1.96833 1.96833 v 8.258063 8.25807 h -1.96997 -1.96996 l -0.10723,-1.28721 -0.10722,-1.28721 -0.87063,0.86666 c -1.00195,0.99739 -2.032632,1.59813 -3.314869,1.93211 -1.068648,0.27835 -3.077723,0.28466 -4.063666,0.0128 z m 5.371237,-3.31126 c 1.996248,-0.85876 3.131718,-3.41059 2.741738,-6.1617 -0.39647,-2.796812 -2.14613,-4.439649 -4.732134,-4.443227 -2.938101,-0.0041 -4.740741,2.086317 -4.740741,5.497457 0,1.48369 0.284968,2.53624 0.957221,3.53557 1.245686,1.85177 3.620483,2.49829 5.773916,1.5719 z"
     id="path2689" />
  <path
     style="fill:#ecf8ab;fill-opacity:1;stroke-width:0.152927"
     d="m 114.49038,112.47061 c -1.53976,-0.25843 -4.68871,-1.43986 -4.68871,-1.75911 0,-0.11321 0.65044,-2.73565 0.69185,-2.7894 0.0188,-0.0244 0.27493,0.0976 0.56911,0.27113 0.29417,0.17357 1.11145,0.52984 1.81616,0.79171 1.04221,0.38727 1.58417,0.49 2.9043,0.55051 1.02936,0.0472 1.82154,0.009 2.16579,-0.10474 1.08859,-0.35927 1.64134,-1.35868 1.2973,-2.34559 -0.21414,-0.61429 -1.15295,-1.08904 -3.20613,-1.62132 -2.13453,-0.55337 -3.2041,-1.03401 -4.146,-1.8631 -1.56028,-1.37341 -2.03353,-3.686729 -1.13045,-5.525724 0.51187,-1.042353 1.22817,-1.704001 2.47169,-2.283106 2.26714,-1.055804 5.44368,-0.912165 8.25107,0.373101 l 0.82202,0.376333 -0.3227,1.325042 c -0.25414,1.043555 -0.37243,1.307817 -0.55681,1.243955 -0.12877,-0.0446 -0.85348,-0.29986 -1.61047,-0.567249 -1.15684,-0.408627 -1.60804,-0.488222 -2.82915,-0.499075 -1.59642,-0.01419 -2.23125,0.199283 -2.69432,0.906014 -0.27073,0.413199 -0.21659,1.301149 0.10281,1.685999 0.29753,0.3585 1.682,0.92433 3.12675,1.2779 3.72618,0.91189 5.63254,2.67373 5.60892,5.18372 -0.019,2.02495 -0.9998,3.6546 -2.76589,4.59592 -1.55437,0.82847 -3.80108,1.12553 -5.87714,0.77708 z"
     id="path2691" />
</svg>
